<svg width="45" height="38" viewBox="0 0 45 38" fill="none" xmlns="http://www.w3.org/2000/svg">
<path d="M0 37.125H11.1937L11.5312 26.1562L21.0375 37.125H35.4375V25.875H23.6812L21.0938 22.5C19.6313 20.5875 18.6187 18.7312 18.7875 18.2812C18.9562 17.8312 21.7687 13.8375 25.0312 9.3375C28.2937 4.89375 30.9375 1.06875 30.9375 0.899998C30.9375 0.731248 28.575 0.562498 25.7063 0.562498H20.475L11.25 13.1625V0.562498H0V37.125Z" fill="#7DFDFE"/>
<path d="M45 3.375C45 5.23896 43.489 6.75 41.625 6.75C39.761 6.75 38.25 5.23896 38.25 3.375C38.25 1.51104 39.761 0 41.625 0C43.489 0 45 1.51104 45 3.375Z" fill="#C6D1F1"/>
</svg>
