<svg width="14" height="14" viewBox="0 0 14 14" fill="none" xmlns="http://www.w3.org/2000/svg">
<path d="M2.04995 13.3C1.67495 13.3 1.35635 13.1686 1.09415 12.9058C0.831351 12.6436 0.699951 12.325 0.699951 11.95V2.04995C0.699951 1.67495 0.831351 1.35635 1.09415 1.09415C1.35635 0.831351 1.67495 0.699951 2.04995 0.699951H6.99995V2.04995H2.04995V11.95H11.95V6.99995H13.3V11.95C13.3 12.325 13.1686 12.6436 12.9058 12.9058C12.6436 13.1686 12.325 13.3 11.95 13.3H2.04995ZM5.25575 9.69995L4.29995 8.74415L10.9942 2.04995H8.79995V0.699951H13.3V5.19995H11.95V3.00575L5.25575 9.69995Z" fill="#C6D1F1"/>
</svg>
